<?xml version="1.0" encoding="utf-8"?>
<!-- Generator: Adobe Illustrator 19.0.0, SVG Export Plug-In . SVG Version: 6.00 Build 0)  -->
<svg version="1.1" id="Layer_1" xmlns="http://www.w3.org/2000/svg" xmlns:xlink="http://www.w3.org/1999/xlink" x="0px" y="0px"
	 viewBox="0 0 612 792" style="enable-background:new 0 0 612 792;" xml:space="preserve">
<g>
	<rect x="360.3" y="479.5" width="54.3" height="54.3"/>
	<rect x="360.3" y="398.1" width="54.3" height="54.3"/>
	<rect x="278.9" y="316.6" width="54.3" height="54.3"/>
	<rect x="278.9" y="398.1" width="54.3" height="54.3"/>
	<rect x="441.7" y="316.6" width="54.3" height="54.3"/>
	<rect x="441.7" y="398.1" width="54.3" height="54.3"/>
	<rect x="441.7" y="479.5" width="54.3" height="54.3"/>
	<rect x="360.3" y="316.6" width="54.3" height="54.3"/>
	<rect x="278.9" y="479.5" width="54.3" height="54.3"/>
	<rect x="116" y="398.1" width="54.3" height="54.3"/>
	<rect x="116" y="479.5" width="54.3" height="54.3"/>
	<rect x="116" y="316.6" width="54.3" height="54.3"/>
	<rect x="197.4" y="479.5" width="54.3" height="54.3"/>
	<rect x="197.4" y="316.6" width="54.3" height="54.3"/>
	<rect x="197.4" y="398.1" width="54.3" height="54.3"/>
	<path d="M496,85.9h-26.3V66.4c0-16.3-12.2-27.1-27.1-27.1c-15,0-27.2,10.9-27.2,27.1v19.5H198.3V66.4c0-16.3-12.2-27.1-27.1-27.1
		c-15,0-27.2,10.9-27.2,27.1v19.5h-28c-37.5,0-67.9,30.4-67.9,67.9v380.1c0,37.5,30.4,67.9,67.9,67.9H496
		c37.5,0,67.9-30.4,67.9-67.9V153.8C563.9,116.3,533.5,85.9,496,85.9z M536.8,533.8c0,22.5-18.2,40.7-40.7,40.7H116
		c-22.5,0-40.7-18.2-40.7-40.7V262.3h461.5L536.8,533.8L536.8,533.8z M536.8,235.2H75.2v-81.4c0-22.5,18.2-40.7,40.7-40.7
		c1.5,0,23.1,0,28,0v34.8c0,13.6,12.2,27.2,27.2,27.2s27.1-13.6,27.1-27.2V113c76.9,0,148,0,217.2,0v34.8
		c0,13.6,12.1,27.2,27.2,27.2c15,0,27.1-13.6,27.1-27.2V113c3.2,0,26.3,0,26.3,0c22.5,0,40.7,18.2,40.7,40.7L536.8,235.2
		L536.8,235.2z"/>
	<path d="M483.3,147.8c0,21.4-18.6,40.7-40.7,40.7c-22.1,0-40.7-19.3-40.7-40.7v-3.4c-2.4,5.7-6.8,10.4-6.8,17
		c0,26.2,21.3,47.5,47.5,47.5c26.2,0,47.5-21.3,47.5-47.5c0-6.6-4.4-11.3-6.8-17V147.8z"/>
	<path d="M211.8,147.8c0,21.4-18.6,40.7-40.7,40.7c-22.1,0-40.7-19.3-40.7-40.7v-3.4c-2.4,5.7-6.8,10.4-6.8,17
		c0,26.2,21.3,47.5,47.5,47.5s47.5-21.3,47.5-47.5c0-6.6-4.4-11.3-6.8-17V147.8z"/>
</g>
</svg>
