<?xml version="1.0" encoding="utf-8"?>
<!-- Generator: Adobe Illustrator 19.0.0, SVG Export Plug-In . SVG Version: 6.00 Build 0)  -->
<svg version="1.1" id="Layer_1" xmlns="http://www.w3.org/2000/svg" xmlns:xlink="http://www.w3.org/1999/xlink" x="0px" y="0px"
	 viewBox="0 0 612 792" style="enable-background:new 0 0 612 792;" xml:space="preserve">
<g>
	<path d="M64.2,141.8c5.8,0,10.4-4.7,10.4-10.4v-26.8c0.1-4.4,1.6-43.3,43.3-43.3h26.9c5.8,0,10.4-4.7,10.4-10.4
		c0-5.8-4.7-10.4-10.4-10.4h-26.9c-50.8,0-64.1,42-64.1,64.1v17C35.3,123.1,0,129.9,0,158.3c0,28.4,35.3,35.2,53.8,36.8V229
		C35.3,230.6,0,237.4,0,265.8c0,28.4,35.3,35.1,53.8,36.8v33.9C35.3,338,0,344.9,0,373.2c0,28.4,35.3,35.2,53.8,36.8v33.9
		C35.3,445.5,0,452.3,0,480.7c0,28.4,35.3,35.1,53.8,36.8v16.9c0,22.2,13.4,64.2,64.1,64.2h26.9c5.8,0,10.4-4.7,10.4-10.4
		c0-5.8-4.7-10.4-10.4-10.4h-26.9c-41.7,0-43.2-38.9-43.3-43.3v-26.8c0-5.8-4.7-10.5-10.4-10.5c-15.1,0-43.3-4.8-43.3-16.4
		c0-11.5,28.2-16.4,43.3-16.5c5.8,0,10.4-4.7,10.4-10.4v-53.7c0-5.8-4.7-10.5-10.4-10.5c-15.1,0-43.3-4.8-43.3-16.4
		c0-11.5,28.2-16.4,43.3-16.4c5.8,0,10.4-4.7,10.4-10.4v-53.7c0-5.8-4.7-10.5-10.4-10.5c-15.1,0-43.3-4.8-43.3-16.4
		c0-11.5,28.2-16.4,43.3-16.4c5.8,0,10.4-4.7,10.4-10.4v-53.7c0-5.8-4.7-10.5-10.4-10.5c-15.1,0-43.3-4.8-43.3-16.4
		C20.9,146.8,49.1,141.9,64.2,141.8z"/>
	<path d="M547.8,40.4H198.6c-5.8,0-10.5,4.7-10.5,10.4c0,5.8,4.7,10.4,10.5,10.4h349.2c4.4,0.1,43.3,1.6,43.3,43.3v429.9
		c-0.1,4.4-1.6,43.3-43.3,43.3H198.6c-5.8,0-10.5,4.7-10.5,10.4c0,5.8,4.7,10.4,10.5,10.4h349.2c50.8,0,64.2-42,64.2-64.2V104.5
		C612,53.8,570,40.4,547.8,40.4z"/>
	<path d="M279.1,317.3h214.9c5.8,0,10.4-4.7,10.4-10.4c0-5.8-4.7-10.4-10.4-10.4H279.1c-5.8,0-10.4,4.7-10.4,10.4
		C268.7,312.6,273.4,317.3,279.1,317.3z"/>
	<path d="M171.7,317.3h53.7c5.8,0,10.5-4.7,10.5-10.4c0-5.8-4.7-10.4-10.5-10.4h-53.7c-5.8,0-10.4,4.7-10.4,10.4
		C161.2,312.6,165.9,317.3,171.7,317.3z"/>
	<path d="M279.1,243.3h214.9c5.8,0,10.4-4.7,10.4-10.4c0-5.8-4.7-10.4-10.4-10.4H279.1c-5.8,0-10.4,4.7-10.4,10.4
		C268.7,238.6,273.4,243.3,279.1,243.3z"/>
	<path d="M171.7,243.3h53.7c5.8,0,10.5-4.7,10.5-10.4c0-5.8-4.7-10.4-10.5-10.4h-53.7c-5.8,0-10.4,4.7-10.4,10.4
		C161.2,238.6,165.9,243.3,171.7,243.3z"/>
	<path d="M279.1,170.3h214.9c5.8,0,10.4-4.7,10.4-10.4c0-5.8-4.7-10.4-10.4-10.4H279.1c-5.8,0-10.4,4.7-10.4,10.4
		C268.7,165.6,273.4,170.3,279.1,170.3z"/>
	<path d="M171.7,170.3h53.7c5.8,0,10.5-4.7,10.5-10.4c0-5.8-4.7-10.4-10.5-10.4h-53.7c-5.8,0-10.4,4.7-10.4,10.4
		C161.2,165.6,165.9,170.3,171.7,170.3z"/>
	<path d="M279.1,398h214.9c5.8,0,10.4-4.7,10.4-10.5c0-5.8-4.7-10.4-10.4-10.4H279.1c-5.8,0-10.4,4.7-10.4,10.4
		C268.7,393.2,273.4,398,279.1,398z"/>
	<path d="M171.7,398h53.7c5.8,0,10.5-4.7,10.5-10.5c0-5.8-4.7-10.4-10.5-10.4h-53.7c-5.8,0-10.4,4.7-10.4,10.4
		C161.2,393.2,165.9,398,171.7,398z"/>
	<path d="M279.1,478.6h214.9c5.8,0,10.4-4.7,10.4-10.4c0-5.8-4.7-10.5-10.4-10.5H279.1c-5.8,0-10.4,4.7-10.4,10.5
		C268.7,473.9,273.4,478.6,279.1,478.6z"/>
	<path d="M235.9,468.1c0-5.8-4.7-10.5-10.5-10.5h-53.7c-5.8,0-10.4,4.7-10.4,10.5c0,5.8,4.7,10.4,10.4,10.4h53.7
		C231.1,478.6,235.9,473.9,235.9,468.1z"/>
</g>
</svg>
