<?xml version="1.0" encoding="utf-8"?>
<!-- Generator: Adobe Illustrator 19.0.0, SVG Export Plug-In . SVG Version: 6.00 Build 0)  -->
<svg version="1.1" id="Layer_1" xmlns="http://www.w3.org/2000/svg" xmlns:xlink="http://www.w3.org/1999/xlink" x="0px" y="0px"
	 viewBox="0 0 612 792" style="enable-background:new 0 0 612 792;" xml:space="preserve">
<g>
	<path d="M82,251c-21.4,0-39.2,17.7-39.2,39.2v61.8c0,21.4,17.7,39.2,39.2,39.2h12.9c3.1,9.8,7.3,19.6,11.6,28.8l-8.6,9.2
		c-15.3,15.3-15.3,40.4,0,55.7l43.5,43.5c7.3,7.3,17.1,11.6,27.5,11.6s20.2-4.3,27.5-11.6l9.2-9.2c9.2,4.9,19,8.6,28.8,11.6v12.9
		c0,21.4,17.7,39.2,39.2,39.2h61.8c21.4,0,39.2-17.7,39.2-39.2v-12.9c9.8-3.1,19.6-7.3,28.8-11.6l9.2,9.2
		c7.3,7.3,17.1,11.6,27.5,11.6c10.4,0,20.2-4.3,27.5-11.6l43.5-43.5c15.3-15.3,15.3-40.4,0-55.7l-9.2-9.2c4.9-9.2,8.6-19,11.6-28.8
		h12.9c21.4,0,39.2-17.7,39.2-39.2v-61.8c0-21.4-17.7-39.2-39.2-39.2h-12.2c-3.1-9.8-7.3-19.6-11.6-28.8l9.2-9.2
		c15.3-15.3,15.3-40.4,0-55.7l-43.5-43.5c-7.3-7.3-17.1-11.6-27.5-11.6c-10.4,0-20.2,4.3-27.5,11.6l-9.2,9.2
		c-9.2-4.9-19-8.6-28.8-11.6V98.6c0-21.4-17.7-39.2-39.2-39.2h-62.4c-21.4,0-39.2,17.7-39.2,39.2v12.9c-9.8,3.1-19.6,7.3-28.8,11.6
		l-9.2-9.2c-7.3-7.3-17.1-11.6-27.5-11.6s-20.2,4.3-27.5,11.6l-43.5,44.1c-15.3,15.3-15.3,40.4,0,55.7l9.2,9.2
		c-4.9,9.2-8.6,19-11.6,28.8H82V251z M119.3,191.6c-3.1-3.1-3.1-8.6,0-12.2l43.5-43.5c3.1-3.1,9.2-3.1,12.2,0l25.1,25.1l10.4-5.5
		c13.5-8,28.2-14.1,43.5-17.7l11-3.1V99.2c0-4.9,3.7-8.6,8.6-8.6h61.8c4.9,0,8.6,3.7,8.6,8.6v35.5l11,3.1
		c15.3,4.3,30,10.4,43.5,17.7l10.4,5.5l25.1-25.1c3.1-3.1,9.2-3.1,12.2,0l43.5,43.5c3.1,3.1,3.1,8.6,0,12.2l-25.1,25.1l5.5,10.4
		c8,13.5,14.1,28.2,17.7,43.5l3.1,11h35.5c4.9,0,8.6,3.7,8.6,8.6v61.8c0,4.9-3.7,8.6-8.6,8.6h-35.5l-3.1,11
		c-4.3,15.3-10.4,30-17.7,43.5l-5.5,10.4l25.1,25.1c3.1,3.1,3.1,8.6,0,12.2l-43.5,43.5c-3.1,3.1-9.2,3.1-12.2,0l-25.1-25.1
		l-10.4,5.5c-13.5,8-28.2,14.1-43.5,17.7l-11,3.1v35.5c0,4.9-3.7,8.6-8.6,8.6h-61.8c-4.9,0-8.6-3.7-8.6-8.6v-35.5l-11-3.1
		c-15.3-4.3-30-10.4-43.5-17.7l-10.4-5.5L175,506.2c-3.1,3.1-9.2,3.1-12.2,0l-43.5-43.5c-3.1-3.1-3.1-8.6,0-12.2l25.1-25.1
		l-5.5-10.4c-8-13.5-14.1-28.2-17.7-43.5l-3.1-11H82.6c-4.9,0-8.6-3.7-8.6-8.6v-61.8c0-4.9,3.7-8.6,8.6-8.6h35.5l3.1-11
		c4.3-15.3,10.4-30,17.7-43.5l5.5-10.4L119.3,191.6z"/>
	<circle cx="304.2" cy="321.3" r="91.8"/>
</g>
</svg>
