<?xml version="1.0" encoding="utf-8"?>
<!-- Generator: Adobe Illustrator 19.0.0, SVG Export Plug-In . SVG Version: 6.00 Build 0)  -->
<svg version="1.1" id="Layer_1" xmlns="http://www.w3.org/2000/svg" xmlns:xlink="http://www.w3.org/1999/xlink" x="0px" y="0px"
	 viewBox="0 0 612 792" style="enable-background:new 0 0 612 792;" xml:space="preserve">
<g>
	<path d="M319.4,467.3C319.4,467.3,319.4,467.3,319.4,467.3c-6.2,0.6-12.4,0.9-18.6,0.9c-150.8-0.4-270.2-178-271.9-404.3
		c-0.1-6.1,2.3-12,6.7-16.3s10.1-6.8,16.3-6.7l500.4,1.4c6.1,0,11.9,2.5,16.2,6.8s6.7,10.2,6.6,16.3
		C572.2,280.8,462.3,453.6,319.4,467.3z M75.2,86.6c8.9,186.9,107.3,335.6,225.7,335.9c120,0.3,217.7-148.8,227.6-334.6L75.2,86.6z"
		/>
	<path d="M302.3,741c-0.8,0.1-1.5,0.1-2.3,0.1c-12.6-0.1-22.8-10.3-22.8-22.9l0.8-262c0.1-12.6,10.1-22.6,22.9-22.8
		c12.6,0.1,22.8,10.3,22.8,22.9l-0.8,262C322.9,730.2,313.9,739.9,302.3,741z"/>
	<path d="M400.9,744.9c-0.8,0.1-1.5,0.1-2.3,0.1l-197.2-0.6c-12.6-0.1-22.8-10.3-22.8-22.9c0.1-12.6,10.3-22.5,22.9-22.8l197.2,0.6
		c12.6,0.1,22.8,10.3,22.8,22.9C421.5,734,412.4,743.8,400.9,744.9z"/>
	<path d="M410.9,231.1c-11.5,1.1-24.2-0.2-38-3.8c-14.7-3.9-28.1-9.2-41-14.4c-33.6-13.5-53.9-20.5-80.3-7.9l-5,2.4
		c-27,13-60.7,29.3-98.1,17.1c-14.4-4.7-27-12.8-39.1-20.6c-14-9.1-27.3-17.7-39.5-17.9c-12.6-0.2-22.6-10.7-22.4-23.3
		c0.2-12.6,10.8-22.6,23.3-22.4c25.3,0.5,45.6,13.6,63.5,25.3c10.1,6.5,19.7,12.7,28.4,15.6c20,6.5,41.4-3.9,64.1-14.8l5.1-2.4
		c45.8-21.9,83.7-6.8,117.1,6.7c12.1,4.9,23.6,9.5,35.6,12.6c13.1,3.4,23.4,3.6,30.1,0.4c7.6-3.6,14.6-10.5,22-17.7
		c7.2-7.1,14.7-14.4,24.1-20.5c17.8-11.5,65.1-21.5,88.4,1.5c9,8.8,9.1,23.3,0.2,32.3c-8.8,9-23.3,9.1-32.3,0.2
		c-4.6-2.2-24.8,0-31.4,4.3c-5.6,3.7-11.2,9.1-17.1,14.8c-9.3,9.1-19.8,19.4-34.2,26.3C427.2,228.2,419.4,230.3,410.9,231.1z"/>
</g>
</svg>
